<svg xmlns="http://www.w3.org/2000/svg" viewBox="0 0 642.61 888.42">
    <path d="M154.3,369.24c-20.24-23.51-35.04-50.15-45.5-79.28-10.92-30.44-16.15-61.82-13.58-94.1,6.22-78.16,52.9-137.66,124.56-159.46,37.6-11.44,75.66-13.66,114.38-8.81,2.12.27,4.21.8,6.31,1.21-10.38-.74-20.76-1.74-31.15-2.16-45.65-1.86-88.95,6.83-128.35,30.69-22.93,13.89-40.65,33.42-54.88,56.03-2.19,3.48-3,7.97-3.8,12.12-.3,1.57.75,4.49,2.01,5.11,8.28,4.06,9.44,12.87,13.59,19.63,2.7,4.4,4.91,9.1,8.07,15.05-8.67,26.36-8.2,55.34-4.34,84.32,2.77,20.76,10.35,40.28,18.95,59.27,12.16,26.84,26.62,52.45,42.9,77.01.92,1.38,1.99,2.66,3.75,3.44-5.54-8.9-11.23-17.71-16.58-26.72-18.64-31.4-36.15-63.58-44.22-99.42-11.13-49.47-7-97.08,23.87-139.7,16.55-22.85,39.85-35.29,66.69-41.17,66.44-14.57,170.59,12.66,215.79,103.81,8.91,17.97,14.26,37.11,19.79,56.25,2.6,9.02,6.49,17.67,9.74,26.33,8.79-2.88,16.18-5.19,23.49-7.74,10.58-3.69,19.63-9.94,26.17-18.9,5.08-6.96,3.62-10.99-2.58-13.46-.76-.3-1.39-.93-3.22-2.2,10.26-2.26,18.78-7.15,28.72-4.39,4.49,1.25,9.34,1.62,13.51,3.52,11.61,5.31,19.27-1.1,22.45-12.49,3.33,17.92-2.08,35.17-5.23,51.67-3.37.92-6.49,1.13-8.93,2.54-10.2,5.87-20.18,12.13-30.27,18.2-4.69,2.82-5.24,4.88-2.84,12.75-6.93,1-13.52.07-19.99-2.12-1.35-.46-2.77-.94-3.92-1.75-22.3-15.88-46.59-12.08-70.89-6.99-11.64,2.44-23.23,4.69-35.16,2.88-10.5-1.59-18.64-7.09-24.81-15.6-8.21-11.32-11.39-24.56-14.77-37.82-3.49-13.7-6.48-27.73-11.84-40.72-13.99-33.96-40.58-51.85-76.76-54.37-46.76-3.26-83.6,14.53-108.55,54.92-10.18,16.48-13.69,34.94-14.48,53.99-.35,8.37-.06,16.77.87,25.2-1.31-23.09.96-45.51,9.83-65.54,5.02,4.41,10.31,8.83,15.26,13.61.78.75.52,3.33-.11,4.66-11.76,24.55-10.85,50.02-5.68,75.82.28,1.37.8,2.69,1.5,4.99-1.16-10.7-2.5-20.35-3.21-30.05-3.98-54.1,39.2-102.88,93.44-105.21,27.42-1.17,46.5,12.79,60.36,35.29,9.23,14.99,13.86,31.83,19.67,48.23,2.08,5.86,4.69,11.7,8.04,16.92,10.2,15.89,15.95,33.68,22.53,51.11,6.48,17.15,15.17,33,27.95,46.17,6.2,6.39,13.8,11.4,20.53,17.29,15.5,13.56,26.17,30.81,36.4,48.37,20.17,34.61,38.01,70.36,52.13,107.9,2.58,6.85,4.81,13.82,7.99,20.6-.36-2.66-.72-5.32-1.17-8.68,7.47,8.41,16.33,13.75,26.58,16.26,13.38,3.28,27.74-3.94,25.48-22.25-1.24-10.02-2.7-19.88-8.57-28.55-2.81-4.16-2.71-8.95-.58-13.4,1.85-3.86,3.87-7.77,6.56-11.06,1.45-1.78,4.35-2.67,6.77-3.29,3.42-.87,8.48,1.72,8.75-4.87.27-6.67-3.23-12.32-8.67-12.97-3.34-.4-6.87-.4-10.15.26-6.29,1.27-12.43,3.23-18.68,4.7-1.43.34-3.53.4-4.41-.4-.7-.64-.51-3.12.18-4.23,1.69-2.71,3.51-5.65,6.03-7.42,1.77-1.24,4.78-.86,7.24-.93,2.66-.08,5.69,1.04,7.93.11,6.77-2.81,13.06-6.81,19.88-9.44,4.12-1.58,8.88-1.48,14.46-2.3-3.03,9.18-7.22,15.16-15.27,17.76,1.81,4.53,4.23,8.64,4.96,13.03.52,3.13-.07,8.11-2.15,9.75-17.66,13.98-17.12,31.94-12.89,51.37,1.5,6.89,1.99,14.36,1.11,21.34-1.74,13.9-12.28,24.38-27.11,25.66-11.25.97-22.74-.86-34.12-1.45-4.99-.77-9.98-1.55-14.97-2.32-14.25-3.85-28.53-7.62-42.76-11.56-22.13-6.14-44.43-11.13-67.6-8.56-6.94.77-13.76,2.64-20.64,4l.26-.13c-2.22.57-4.59.82-6.65,1.76-19.99,9.08-31.6,25.25-37.6,45.74-3.94,13.46-3.81,27.36-2.39,42.58-1.02-2.21-1.52-3.14-1.89-4.12-12-31.86-18.85-64.94-22.52-98.67-2.33-21.44-6.18-42.26-19.13-60.17-4.44-6.14-9.61-11.74-14.45-17.59l.15.16c-.93-1.44-1.63-3.12-2.83-4.29-11.79-11.49-23.65-22.91-35.53-34.3-.71-.68-1.79-.95-2.7-1.42l.17.16c-.85-1.06-1.55-2.3-2.57-3.17-23.85-20.33-46.38-42-66.85-65.77-.85-.99-2.23-1.53-3.36-2.27-1.31-1.92-2.62-3.85-3.92-5.77ZM432.24,550.58l22.09,12.28c.25-.49.5-.98.76-1.47-7.65-3.56-15.29-7.13-22.94-10.69-8.95-5.88-17.9-11.77-26.85-17.65-.35.58-.7,1.16-1.05,1.75,9.33,5.26,18.66,10.53,28,15.79ZM335.03,459.33c5.81,7.92,11.62,15.84,17.44,23.76.49-.37.97-.74,1.46-1.11-6.1-7.73-12.2-15.46-18.31-23.19-.18-.5-.25-1.07-.54-1.5-16.6-24.49-36.08-46.27-59.02-65.13-14.92-12.27-29.65-25.02-42.87-39.06-19.43-20.62-29.14-45.32-24.98-74.32,3.34-23.31,21.83-42.07,44.96-44.89,5.67-.69,11.49-.1,18.78-.1-32.07-7.2-61.02,13.32-65.79,45.18-3.86,25.8,4.41,48.07,19.76,68.3,12.03,15.86,26.66,29.04,42.32,41.13,21.99,16.98,41.95,35.89,57.58,59.08,2.79,4.14,6.12,7.91,9.21,11.85ZM170.28,192.4c-14.56,25.43-18.47,53.68-14.3,83.32.36-.48.51-1,.49-1.52-.07-1.61-.2-3.22-.3-4.83-1.25-19.57.74-38.77,7.73-57.15,18.32-48.12,62.65-76.41,115.7-74.53,25,.88,47.05,8.49,65.27,26.18,11.76,11.41,20.2,25.17,27.95,39.32,14.56,26.61,35.34,46.82,61.84,61.14,8.19,4.42,17.07,7.57,26.52,11.69-7.94-8.15-16-14.54-21.61-22.62-8.33-12-15.74-24.81-22.05-37.99-8.63-18.02-17.98-35.49-29.86-51.57-21.71-29.38-52.49-45.68-85.46-58.29-22.29-8.53-45.7-11.11-69.29-6.11-30.67,6.5-55.6,21.74-71.08,49.97-17.49,31.91-17.35,66.02-11.98,100.68-1.62-24.55-3.07-49.11,4.14-73.05,5.55,5.24,10.64,10.04,16.3,15.38ZM391.79,435.22c.4-.56.8-1.13,1.2-1.69-.86-2.05-1.54-4.2-2.6-6.15-17.45-32.12-28.65-66.35-34.73-102.34-3.85-22.77-7.3-45.62-11.86-68.25-3.13-15.55-10.4-29.34-22.39-40.25-21.44-19.51-47.05-24.26-74.66-20.21-24.65,3.61-43.2,16.18-53.98,39.4-7.46,16.08-8.26,32.84-6.49,50.02.35,3.38.93,6.75,1.59,10.08.66,3.33,1.43,6.65,2.4,9.9.91,3.06,2.16,6.03,3.26,9.04-4.52-13.8-6.58-27.88-6.3-42.31.29-14.7,2.53-28.89,11.4-41.52.94,8.56,9.51,10.38,13.48,16.2-10.48,16.06-15.28,33.32-10.69,52.45.35-6.75-.33-13.61.46-20.29,4.08-34.39,31.7-55.68,65.81-51.11,28.18,3.78,50.63,24.34,56.97,53.58,2.84,13.08,4.14,26.55,5.33,39.92,2.34,26.29,6.52,52.02,20.24,75.16,8.03,13.55,17.85,25.64,31.39,34.12,3.07,1.92,6.77,2.85,10.18,4.24ZM443.42,501.36c.29-.31.57-.63.86-.94,6.04,1.92,12.24,3.45,18.08,5.85,12.21,5.02,24.18,10.61,36.35,15.73,4.6,1.94,8.41,3.83,10.34,9.23,4.27,11.93,9.4,23.54,14.18,35.29.05-1.41-.18-2.76-.6-4.06-16.71-51.67-40.83-99.78-70.11-145.35-10.99-17.1-24.74-31.87-42.82-41.57-10.13-5.43-17.93-12.88-25.05-21.52-5.36-6.5-10.93-12.82-16.64-19.02-1.45-1.57-3.74-2.37-5.89-3.67-.47,1.62-.71,1.98-.65,2.28,5.92,29.52,14.37,58.31,29.31,84.54,17.3,30.38,35.85,60.04,53.93,89.98,2.6,4.3,5.59,8.37,8.39,12.54.41-.26.82-.53,1.24-.79-3.64-6.18-7.29-12.35-10.93-18.53ZM486.23,279c-10.16-12.87-14.03-26.87-17.57-40.97-4.64-18.48-10.33-36.63-19.46-53.4-24.55-45.11-61.56-75.14-110.45-90.87-18.04-5.8-36.4-9.34-55.26-10.54-4.23-.27-7.6,1.12-8.33,5.71-.73,4.6,2.36,6.35,6.24,7.16,8.77,1.84,17.49,3.99,26.33,5.4,17.94,2.87,34.84,8.67,47.59,21.81,13.94,14.36,26.9,29.76,39.45,45.38,13.24,16.48,20.97,36.21,30.01,55.11,8.05,16.84,18.12,32.21,32.88,43.98,7.94,6.33,16.72,10.87,28.57,11.22ZM224.02,286.17c.29,5.38-.02,10.65.93,15.68,3.86,20.34,15.1,36.54,30.95,49.03,24.77,19.52,50.41,37.94,75.51,57.04,4.43,3.37,8.06,7.81,12.07,11.75,1.77,1.74,3.51,3.52,5.33,5.21,6.7,6.17,14.57,11.45,19.89,18.63,9.81,13.25,22.55,22.88,35.35,32.63,3.98,3.03,7.79,6.55,12.25,8.62,5.63,2.61,9.55,6.53,12.83,11.53,10.62,16.19,21.31,32.34,32.01,48.48,1.07,1.61,2.35,3.08,3.53,4.61-5.57-10.38-12.08-20-18.2-29.85-12.87-20.73-25.53-41.58-38.29-62.38-3.78-6.17-8.23-11.33-15.01-14.83-45.78-23.63-87.41-53.54-127.38-85.81-13.73-11.09-26.19-23.53-33.51-40.1-4.79-10.84-6.45-22-3.04-33.58,6.24-21.17,31.71-31.66,54.05-19.56,16.81,9.11,29.84,44.55,8.27,61.31-3.59,2.79-3.55,5.54-.83,9.11,2.8,3.68,5.59,7.58,7.32,11.81,2.98,7.29-1.17,12.33-8.7,10.1-15.36-4.55-27.93-13.44-34.8-28.3-6.52-14.1,3.47-26.89,18.94-25.15,9.49,1.06,14.03-4.75,10.53-13.77-3.59-9.25-10.76-14.27-20.38-15.33-9.76-1.08-18.23,2.03-23.9,10.39-7.38,10.88-5.99,30.05,2.34,40.24-1.73-7.64-3.52-15.53-5.43-23.99,2.58,2.92,4.54,4.92,6.25,7.12,2.45,3.13,6.44,6.22,6.78,9.62,1.8,18.26,22.5,40.04,40.77,41.85,7.8.77,12.39-4.29,10.51-11.98-.75-3.05-2.32-5.9-4.17-10.43,8.35,5.69,15.53,10.59,23.14,15.78.78-2.18,1.23-3.41,1.8-5.01,3.65,18.56,8.54,36.11,17.08,52.49.4-.8.52-1.57.24-2.14-7.23-14.8-11.28-30.64-13.63-46.75-2.49-17.02-3.08-34.3-5.27-51.37-2.63-20.54-9.76-39.29-27.42-51.71-28.09-19.75-63.1-11.36-75.98,18.64-6.74,15.69-6.73,31.46-1.45,47.43-1.9-10.93-3.97-21.88.46-34.21-.28,3.66-.45,5.9-.65,8.56,3.27-.52,6.05-.97,8.89-1.42ZM375.28,213.04c-.47.38-.95.76-1.42,1.13-.19.65-.62,1.32-.53,1.93,2.47,17.8,5.37,35.51,14.13,51.57,8.73,16.01,22.53,22.8,40.32,20.54,14.31-1.82,28.47-4.78,44-7.46-41.99-9.62-73.75-32.2-96.5-67.71ZM354.16,272.75c-.34,2.57-.73,3.62-.57,4.58,2.18,13.6,4.21,27.24,6.84,40.76.68,3.48,2.81,7.02,5.15,9.78,8.68,10.24,17.64,20.25,26.69,30.17,3.15,3.46,6.86,6.41,10.31,9.59.63-1.19.65-1.78.37-2.11-12.65-15.17-19.19-33.33-26.07-51.48-4.66-12.31-11.02-23.99-16.89-35.82-.95-1.92-3.3-3.15-5.84-5.47ZM224.25,199.07c15.81-8.25,32.74-7.92,49.72-6.94,17.25,1,32.12,8.96,46.88,17.18-24.98-40.46-73.76-32.77-96.6-10.25ZM233.63,281.26c.59.38,1.17.75,1.76,1.13,1.43-1.51,2.84-3.04,4.31-4.51,9.52-9.56,23.75-11.59,35.08-5.02,11.81,6.85,16.9,19.22,13.35,32.65-1.13,4.26-2.48,8.46-3.73,12.68l1.3,1.38c1.94-1.26,4.38-2.12,5.72-3.84,6.51-8.35,6.02-18.01,3.89-27.55-2.98-13.39-11.97-21.53-24.91-24.76-12.22-3.05-23.14.16-31.69,9.71-2.1,2.34-3.41,5.4-5.08,8.12ZM182.07,117.2c.91.28,1.11.4,1.2.35.61-.36,1.25-.71,1.79-1.16,17.04-14.25,37.06-20.41,58.86-21.6,7.15-.39,14.34-.14,21.46-.72,1.81-.15,4.5-2.14,4.88-3.74.41-1.7-.94-4.6-2.45-5.77-1.62-1.26-4.42-1.75-6.55-1.47-9.72,1.29-19.6,2.2-29.04,4.68-19.18,5.05-36.07,14.48-50.14,29.42ZM534.29,296.25c-.14-2.25-.22-4.18-.4-6.1-.37-4.03,0-8.4-1.49-11.98-.95-2.29-4.9-5.03-7.16-4.75-6.72.84-12.69,4.06-17.51,9.74,7.82,7.5,16.03,12.93,26.55,13.08ZM538.14,262.3c-2.4-2.98-6.37-3.07-10.13-1.85-4.91,1.59-9.73,3.64-14.29,6.05-7.41,3.91-14.47,8.57-24.91,7.67,8.43,4.77,14.87,2.46,21.43-.37,9.13-3.95,18.39-7.59,27.9-11.49ZM291.31,179.45c6.71,4.24,15.07,8.5,22.23,14.26,14.3,11.51,21.96,27.74,27.96,44.51,4.55,12.72,7.43,26.04,10.97,38.78.03-.57.25-1.62.09-2.6-4.07-25.98-11.53-50.77-27.85-71.86-8.81-11.38-20.3-19.58-33.41-23.08ZM308.9,512.91l.95-.44c-4.17-10.94-8.76-21.75-12.43-32.85-5.83-17.64-14.86-33.33-27.33-46.97-5.54-6.06-11.79-11.48-17.71-17.19-.72,1.17-.72,1.55-.52,1.75.75.76,1.54,1.5,2.36,2.19,20.88,17.72,35.45,39.48,43.41,65.84,2.87,9.49,7.47,18.46,11.28,27.67ZM356.14,129.04c-5.56-9.47-26.84-20.95-34.06-18.81,11.6,6.4,22.83,12.6,34.06,18.81ZM320.19,499.41c-2.83-5.15-6.16-10.1-8.38-15.5-6.31-15.39-11.96-31.06-18.29-46.44-2.62-6.37-6.29-12.31-9.49-18.45-.45.23-.89.46-1.34.69,16.07,25,18.31,56.4,37.5,79.7ZM437.94,562.69c.14-.38.28-.75.41-1.13-25.53-9.39-51.06-18.78-76.59-28.17-.18.5-.36.99-.54,1.49,25.57,9.27,51.15,18.54,76.72,27.81ZM363.43,549.48c-.18.41-.36.83-.54,1.24,19.83,5.81,39.65,11.63,59.48,17.44.12-.41.24-.82.36-1.23-19.77-5.82-39.53-11.63-59.3-17.45ZM356.21,531.36c-10.69-8.5-21.19-16.86-32.22-25.63,9.16,11.24,19.8,19.48,32.22,25.63ZM242.93,385.64c-.09.12-.19.23-.28.35-5-5.44-9.99-10.87-14.99-16.31-.29.29-.57.58-.86.87,5.38,5.03,10.75,10.06,16.13,15.1ZM263.56,397.2s0-.04-.01-.06l15.26,15.4c-.09.07-.18.15-.27.22-4.99-5.19-9.99-10.37-14.98-15.56ZM314.2,517.89c.16-.2.32-.39.48-.59,4.27,4.54,8.54,9.07,12.81,13.61-.13.12-.25.23-.38.35-4.3-4.46-8.61-8.91-12.91-13.37Z"/>
    <path d="M44.41,750.13c-.27-.55-.54-1.11-.81-1.66,5.72-8.38,11.44-16.76,17.17-25.14,22.11-32.33,42.3-65.8,56.66-102.36,13.12-33.38,18.46-68.16,14.27-103.95-3.74-32-16.21-60.79-34.66-87-13.42-19.06-27.53-37.64-40.63-56.92-21.46-31.57-35.71-66.21-40.57-104.23-5.06-39.63-1.84-78.71,10.19-116.91C44.26,94.1,79.59,49.15,129.57,15.43c2.97-2,7.05-2.36,11.79-3.85-9.57,9.03-18.6,16.85-26.83,25.43-35.27,36.75-59.88,79.29-70.33,129.65-10.42,50.22-.71,96.86,23.75,141.1.22.41.64.71,1.64.73-1.24-2.48-2.44-4.99-3.71-7.45-14.88-28.77-24.03-59.17-24.22-91.71-.25-43.25,12.17-83.15,34.46-119.93,16.98-28.02,38.69-52.06,64.18-72.66,2.87-2.32,5.9-4.44,9.36-6.03-6.55,6.15-13.17,12.22-19.62,18.47-4.88,4.73-9.69,9.55-14.3,14.55-8.51,9.23-8.47,18.5.03,28.15-5,6.88-10.15,13.72-15.05,20.73-28.96,41.42-42.27,87.36-39.93,137.89.98,21.09,4.49,41.68,10.99,61.75.56,1.74,1.91,3.22,2.9,4.82,5.56,12.97,9.9,26.66,16.94,38.76,11.39,19.57,24.42,38.2,37.05,57.03,6.16,9.19,12.98,17.93,19.49,26.88,7.58,10.66,15.42,21.15,22.67,32.02,13.8,20.67,20.41,44.18,25.33,68.15,9.18,44.65,7.54,89.13-3.36,133.81-2.35-3.74-3.92-1.65-5.7.23-8.98,9.47-17.72,19.21-27.11,28.26-15.46,14.9-31.07,29.67-47.21,43.83-7.44,6.53-16.29,11.43-24.46,17.14-3.21,2.24-6.53,4.41-9.4,7.04-5.07,4.64-10.5,7.82-17.76,6.6,12.54-14.69,25.28-29.02,37.36-43.88,30.49-37.48,50.74-79.73,57.44-127.89,6.31-45.35-1.64-88.76-20.52-130.02-8.62-18.84-19.74-36.53-29.75-54.73-.3-.55-.85-.96-2.17-.94,1.37,2.39,2.64,4.84,4.11,7.17,15.96,25.28,29.08,51.87,37.58,80.63,20.08,67.89,10.85,131.83-25.57,192.25-13.61,22.58-31.05,42.09-48.31,61.77-.47.54-.9,1.33-1.5,1.51M67.4,117.78c-.76,1.12-1.79,2.14-2.23,3.37-3.68,10.45-7.27,20.93-10.83,31.42-.49,1.45-.71,3-1.05,4.51,1.47-2.05,2.05-4.29,2.79-6.48,3.72-10.98,7.47-21.94,11.21-32.91,3.7-6.93,7.4-13.86,11.1-20.79-.58-.27-1.15-.54-1.73-.81-3.09,7.23-6.18,14.46-9.27,21.68ZM48.42,223.88c.3-.06.59-.13.89-.19v-47.29c-.3,0-.59-.01-.89-.02v47.5Z"/>
    <path d="M154.3,369.24c1.31,1.92,2.62,3.85,3.92,5.77.39.6.72,1.24,1.18,1.78,20.83,25.1,44.49,47.33,69.3,68.4.62.52,1.53.7,2.31,1.03,0,0-.17-.16-.17-.16,1.11,1.31,2.11,2.72,3.34,3.91,10.64,10.3,21.32,20.56,32,30.81,1.87,1.8,3.81,3.53,5.72,5.29,0,0-.15-.16-.15-.16,1.01,1.62,1.83,3.41,3.06,4.83,17.04,19.67,26.01,42.6,28.14,68.44,3.1,37.77,11.78,74.33,25.18,109.7,8.01,21.14,13.3,43.29,23.54,63.58,5.52,10.94,11.31,21.73,16.97,32.59l1.28-.63c-.61-1.36-1.12-2.79-1.86-4.08-12.18-21.22-21.45-43.69-29.63-66.72-6.11-17.22-8.72-34.73-7.33-52.84,1.77-22.98,11.09-42.16,29.86-56.03,4.66-3.44,10.24-5.62,15.4-8.37,0,0-.26.13-.26.13,11.94-.85,23.87-2.16,35.82-2.45,18.85-.46,36.82,4.96,54.93,9.32,13.38,3.23,26.83,6.18,40.25,9.25,4.99.77,9.98,1.55,14.97,2.32,4.36,1.17,8.69,2.43,13.08,3.47,2.24.53,4.57.65,6.74,2.24-10.29-1.07-20.62-1.84-30.86-3.27-17.81-2.49-35.68-4.51-53.52-1.29-25.4,4.59-42.51,19.71-53.32,42.94-7.96,17.11-11.62,35.31-15.5,53.25.26-30.85,11.57-77.15,46.07-93.47-.28-.42-.55-.84-.83-1.26-5.42,3.82-11.33,7.1-16.16,11.55-14.93,13.75-22.9,31.46-26.92,51.01-9.5,46.22-8,91.64,11.18,135.47,9.99,22.83,24.04,43.2,39.55,62.56,8.04,10.04,16.45,19.78,24.18,30.25-2.03-2-4.15-3.93-6.09-6.03-17.45-18.8-34.82-37.66-52.36-56.38-1.47-1.57-3.93-2.23-5.9-3.34-.58-1.54-.88-3.29-1.83-4.55-2.81-3.71-5.79-7.3-8.85-10.82-37.66-43.34-68.04-91.22-90.15-144.28-2.8-6.71-5.61-13.42-8.42-20.12-.32,1.95.17,3.59.78,5.19,18.43,48.98,43.3,94.35,76.03,135.27,10.61,13.27,21.66,26.18,32.51,39.26,3.57,3.36,7.15,6.72,10.72,10.08-.42.45-.84.9-1.26,1.35-2.62-2.44-5.36-4.77-7.84-7.35-34.7-36.14-65.22-75.37-88.67-119.87-14.84-28.16-26.78-57.55-37.26-87.54-22.17-63.45-47.84-125.25-84.73-181.82-1.02-1.57-2.4-2.91-3.61-4.36,0,0,.14.2.14.2-.05-.52.07-1.15-.18-1.53-12.52-19.13-25.07-38.23-37.61-57.34-3.2-5.68-6.41-11.36-9.61-17.05,4.23,3.95,8.46,7.9,12.69,11.85ZM314.72,644.5c-.97-4.13-1.86-8.28-2.92-12.38-3.44-13.41-6.94-26.81-10.42-40.21.07,3.92.62,7.78,1.66,11.5,3.84,13.7,7.84,27.35,11.78,41.01.28,1.39.37,2.85.87,4.15,6.7,17.52,13.45,35.02,20.23,52.51.81,2.08,1.89,4.06,2.85,6.08.52-1.59.19-2.77-.25-3.89-7.16-18.29-14.33-36.58-21.54-54.85-.55-1.39-1.5-2.61-2.26-3.92ZM425.9,586.57c-16.6,1.33-30.85,7.8-42.56,19.46-15.19,15.14-21.59,34.31-24.32,55-3.26,24.71,1.37,48.61,8.15,72.16,2.75,9.54,6.53,18.79,9.83,28.17.51-.18,1.02-.37,1.53-.55-.97-2.41-1.98-4.81-2.89-7.24-11.47-30.72-19.17-62.11-14.39-95.19,2.78-19.25,9.06-37.21,23.53-51.32,11.57-11.28,25.57-17.46,41.12-20.5Z"/>
    <path d="M141.61,357.39c3.2,5.68,6.41,11.36,9.61,17.05.73,1.77,1.21,3.7,2.22,5.28,11.06,17.23,22.19,34.41,33.35,51.58.53.81,1.47,1.35,2.22,2.01,0,0-.14-.2-.14-.2,2.52,4.47,4.87,9.05,7.58,13.4,29.78,47.73,52.28,98.83,70.37,151.98,1.19,3.5,2.32,7.01,3.26,10.64-4.94-9.05-13.11-1.68-19.57-4.17,2.7,20.44,4.69,40.78,8.25,60.84,2.77,15.64,6.31,31.36,11.63,46.29,8.2,23,23.61,41.5,42.52,56.55,26.23,20.87,53.52,40.41,79.76,61.26,19.31,15.34,37.66,31.89,56.43,47.9-.46.54-.92,1.08-1.38,1.63-11.7-9.77-23.16-19.85-35.15-29.25-20.32-15.91-41.14-31.18-61.45-47.1-17.5-13.71-35.31-27.15-51.7-42.11-26.84-24.5-40.16-56.15-44.89-91.84-2.09-15.81-5.03-31.51-7.34-47.3-.6-4.11-2.28-5.23-6.47-3.71.6,27.53-9.01,53.04-16.46,79.03-7.76,27.09-.38,49.47,21.32,67.25,13.42,11,29.18,17.62,45.35,22.98,28.51,9.46,55.09,22.56,79.15,40.47,21.2,15.78,41.88,32.26,62.78,48.44.38.3.64.75.69,1.78-52.6-35.63-109.46-60.37-172.88-68.52,15.48-.59,30.33,2.7,45.02,6.82,14.6,4.1,29.11,8.52,43.94,12.03-8.45-3.05-16.85-6.26-25.37-9.13-29.98-10.09-60.65-16.06-92.45-14.47-37.37,1.86-69.93,14.72-95.44,42.88-4.89,5.4-8.65,11.83-12.88,17.83-1.09,1.55-2,3.23-2.99,4.85-.42-.2-.84-.39-1.26-.59.82-1.75,1.55-3.55,2.48-5.24,18.67-33.84,47.87-53.08,85.1-60.71,35.22-7.22,69.59-1.76,103.57,7.99,2.86.82,5.73,1.61,8.6,2.42.14-.44.29-.88.43-1.32-21.6-7.55-42.99-15.79-64.86-22.49-32.24-9.88-65.31-15.09-99.19-13.56-49.99,2.26-92.25,21.97-127.26,57.32-10.06,10.16-19.01,21.42-28.12,31.77.06-.15.23-1.1.71-1.86,28.01-44.34,66.56-74.72,117.78-87.64,27.55-6.95,55.4-5.72,83.33-1.37,43.96,6.84,85.67,20.41,125.52,40.04,14.77,7.27,29.72,14.19,44.61,21.23,1.52.72,3.16,1.17,6.11,2.23-1.11-1.9-1.3-2.58-1.74-2.91-26.4-19.55-54.72-35.53-86.2-45.33-17.09-5.32-34.45-9.82-51.64-14.84-14.58-4.26-25.89-12.58-28.36-28.33-1.21-7.72-.54-16.25,1.4-23.87,6.07-23.78,13.7-47.17,19.7-70.96,5.43-21.54,6.03-43.65,4.52-65.79-.14-2.1-.31-4.2-.46-6.3.56-.13,1.13-.27,1.69-.4,3.02,11.57,6.04,23.13,9.06,34.7.7-.2,1.41-.41,2.11-.61-1.82-7.54-2.97-15.33-5.58-22.59-11.87-33.07-23.69-66.3-42.36-96.27-15.24-24.48-31.96-48.05-48.1-71.96-.93-1.38-2.62-2.25-3.95-3.36-6.52-8.95-13.33-17.69-19.49-26.88-12.63-18.83-25.66-37.46-37.05-57.03-7.05-12.1-11.39-25.79-16.94-38.76-31.16-94.31-2.53-193.92,75.89-251.48C185.55,19.91,225.22,6.24,268.02,1.73c53.63-5.66,105.11,2.42,153.67,26.63,36.43,18.16,67.22,43.12,90.82,76.47,14.6,20.63,25.51,43.13,32.17,67.6.37,1.38.56,2.81.83,4.21,0,0,.1-.1.1-.1-2.25-6.09-4.42-12.22-6.76-18.27-25.05-64.55-70.97-108.73-134.36-134.48-69.99-28.43-140.57-28.32-210.37,1.23-29.46,12.47-54.43,31.64-74.96,56.34-5.7,6.86-6.21,19.56-1.06,26.95,1.28-1.19,2.52-2.35,3.73-3.48-4.58,9.55-9.66,18.9-13.67,28.69-22.49,54.86-19.86,109.8,1.86,163.96,8.03,20.02,19.36,38.72,29.25,57.99.43.83,1.55,1.3,2.35,1.94ZM255.95,776.59c-7.83-6.57-17.4-12.49-24.04-20.77-6.69-8.32-10.47-18.99-15.98-29.5-.97,2.31-1.96,3.95-2.34,5.72-2.17,10.06-.03,19.16,6.32,27.28,9.43,12.04,23.39,14.18,36.04,17.27Z"/>
    <path d="M232.02,624.9v-8.65c-7.74,7.99-15.69,16.19-23.63,24.39,4.89-33.4,6.13-66.37,1.6-99.46.52,9.31,1.43,18.61,1.5,27.92.3,41.63-5.06,82.41-21.47,120.97-6,14.1-14.41,27.19-21.77,40.71-1.88,3.46-4.2,6.7-5.92,10.24-6.1,12.5-3.89,20,7.54,26.94-16.66,1.43-33.54,2.89-52.47,4.51,2.57-1.9,4.19-3.08,5.78-4.29,43.01-32.79,66.47-76.93,75.61-129.57,6.47-37.28,7.53-74.58.7-111.83-2.48-13.52-6.83-26.7-10.37-40.02-.67-2.53-1.54-5.01-1.42-7.99.84,1.01,1.84,1.91,2.48,3.03,14.32,25.04,29.08,49.8,37.7,77.69,5.78,18.72,6.96,37.61,5.46,56.89-.22,2.84-.52,5.67-.78,8.51-.18,0-.35,0-.53,0ZM156.61,745.91c-.61-.44-1.21-.89-1.82-1.33-8.26,7.55-16.52,15.1-24.78,22.65.17.37.34.74.51,1.11,7.51-.82,15.01-1.63,22.26-2.42,1.34-7.01,2.59-13.51,3.84-20.02Z"/>
    <path d="M578.45,412.42c4.81-2.56,8.97-5.37,13.54-7.09,9.67-3.65,19.55-6.73,29.35-10.04,5.74-1.94,11.47-3.93,17.26-5.73,1.18-.37,2.57-.03,3.87-.02-.04,1.35.48,3.22-.21,3.98-4.87,5.35-9.9,10.58-15.11,15.61-1.34,1.29-3.45,1.89-5.3,2.51-12.14,4.04-20.11,11.38-20.61,25.15-.18-1.38-.34-2.75-.55-4.12-1.24-8.27-3.03-10.3-11.1-12.33-4.88-1.23-9.08-3.27-11.13-7.9Z"/>
    <path d="M537.03,307.81c-.56-1.54-1.13-3.08-1.89-5.16,2.03-.54,3.59-.95,6.6-1.75-1.24,3.12-2.03,5.1-2.81,7.08-.63-.06-1.26-.12-1.89-.17Z"/>
    <path d="M545.51,176.64c1.53,7.8,3.05,15.6,4.58,23.39l-1.17.21c-1.11-7.9-2.22-15.79-3.32-23.7,0,0-.09.09-.09.09Z"/>
    <path d="M182.07,117.2c14.07-14.94,30.97-24.37,50.14-29.42,9.44-2.49,19.32-3.39,29.04-4.68,2.13-.28,4.93.21,6.55,1.47,1.51,1.17,2.86,4.07,2.45,5.77-.38,1.6-3.07,3.59-4.88,3.74-7.12.59-14.31.33-21.46.72-21.8,1.19-41.82,7.35-58.86,21.6-.54.45-1.18.8-1.79,1.16-.09.05-.29-.08-1.2-.35Z"/>
    <path d="M356.14,129.04c-11.23-6.2-22.47-12.4-34.06-18.81,7.22-2.14,28.5,9.33,34.06,18.81Z"/>
    <path d="M432.15,550.7c7.65,3.56,15.29,7.13,22.94,10.69-.25.49-.5.98-.76,1.47-7.36-4.09-14.72-8.18-22.09-12.28,0,0-.09.12-.09.12Z"/>
    <path d="M314.2,517.89c4.3,4.46,8.61,8.91,12.91,13.37.13-.12.25-.23.38-.35-4.27-4.54-8.54-9.07-12.81-13.61-.16.2-.32.39-.48.59Z"/>
    <path d="M401.52,822.63c-10.85-13.08-21.9-26-32.51-39.26-32.73-40.91-57.61-86.29-76.03-135.27-.6-1.6-1.1-3.24-.78-5.19,2.81,6.71,5.63,13.41,8.42,20.12,22.11,53.06,52.49,100.94,90.15,144.28,3.06,3.52,6.04,7.1,8.85,10.82.95,1.26,1.25,3,1.83,4.55-.02.02.07-.05.07-.05Z"/>
    <path d="M189.01,433.31c-.75-.67-1.69-1.2-2.22-2.01-11.16-17.17-22.29-34.35-33.35-51.58-1.02-1.58-1.5-3.51-2.22-5.28,12.55,19.11,25.09,38.22,37.61,57.34.25.39.13,1.02.18,1.53Z"/>
    <path d="M314.71,644.51c.76,1.3,1.72,2.53,2.26,3.92,7.22,18.27,14.38,36.56,21.54,54.85.44,1.13.77,2.3.25,3.89-.96-2.03-2.04-4-2.85-6.08-6.78-17.49-13.53-34.99-20.23-52.51-.5-1.3-.59-2.77-.87-4.15l-.11.1Z"/>
    <path d="M314.82,644.41c-3.94-13.67-7.94-27.32-11.78-41.01-1.04-3.72-1.59-7.57-1.66-11.5,3.48,13.4,6.98,26.8,10.42,40.21,1.05,4.11,1.95,8.26,2.91,12.39,0,0,.11-.09.11-.09Z"/>
    <path d="M481.44,277.28c-3.3-1.41-5.44-2.32-7.82-3.33,3.92-3.87,4.85-3.54,7.82,3.33Z"/>
</svg>